<?xml version="1.0" encoding="UTF-8"?>
<svg width="22px" height="44px" viewBox="0 0 22 44" version="1.1" xmlns="http://www.w3.org/2000/svg" xmlns:xlink="http://www.w3.org/1999/xlink">
    <!-- Generator: Sketch 44.1 (41455) - http://www.bohemiancoding.com/sketch -->
    <title>stars</title>
    <desc>Created with Sketch.</desc>
    <defs></defs>
    <g id="后台-切图" fill="none" fill-rule="evenodd" stroke="none" stroke-width="1" >
        <g id="stars" fill-rule="nonzero" fill="#FD4B48">
            <g id="Group">
                <g id="star" transform="translate(0.000000, 0.000000)">
                    <path d="M9.9992,0.400024414 C9.34480407,0.400024414 8.76320769,0.821821791 8.56180894,1.44501792 L6.8970193,6.56618607 L1.51185278,6.56618607 C0.857456854,6.56618607 0.275860471,6.98798345 0.0744617234,7.61137957 C-0.128737013,8.2335757 0.093661604,8.91577146 0.623058312,9.30116906 L4.98043121,12.4677494 L3.31564157,17.5897175 C3.11244283,18.2119136 3.33484145,18.8951094 3.86423816,19.279507 C4.1298365,19.4723058 4.44223456,19.5685052 4.75303263,19.5685052 C5.06543069,19.5685052 5.37802874,19.4723058 5.6418271,19.279507 L9.9992,16.1131267 L14.3565729,19.279507 C14.6203713,19.4723058 14.9329693,19.5685052 15.2453674,19.5685052 C15.5561654,19.5685052 15.8685635,19.4723058 16.1341619,19.279507 C16.6635586,18.8941094 16.8857572,18.2119136 16.6827584,17.5897175 L15.0179688,12.4677494 L19.3769417,9.30216905 C19.9063384,8.91757145 20.128737,8.23457569 19.9255383,7.61217956 C19.7223395,6.98898344 19.1425431,6.56698606 18.4879472,6.56698606 L13.1013807,6.56698606 L11.4365911,1.44501792 C11.2333923,0.821821791 10.6535959,0.400024414 9.9992,0.400024414 L9.9992,0.400024414 Z" id="Shape"></path>
                </g>
                <g id="Group-2" transform="translate(0.000000, 22.000000)">
                <g id="star">
                    <path d="M9.9992,1.91201501 L12.0023875,8.07917666 L18.4879472,8.07917666 L13.2401799,11.890353 L15.2451674,18.0567146 L9.9992,14.2445383 L4.75303263,18.0567146 L6.75642017,11.890353 L1.51185278,8.07837667 L7.99401247,8.07837667 L9.9992,1.91201501 L9.9992,1.91201501 Z M9.9992,0.400024414 C9.34480407,0.400024414 8.76320769,0.821821791 8.56180894,1.44501792 L6.8970193,6.56618607 L1.51185278,6.56618607 C0.857456854,6.56618607 0.275860471,6.98798345 0.0744617234,7.61137957 C-0.128737013,8.2335757 0.093661604,8.91577146 0.623058312,9.30116906 L4.98043121,12.4677494 L3.31564157,17.5897175 C3.11244283,18.2119136 3.33484145,18.8951094 3.86423816,19.279507 C4.1298365,19.4723058 4.44223456,19.5685052 4.75303263,19.5685052 C5.06543069,19.5685052 5.37802874,19.4723058 5.6418271,19.279507 L9.9992,16.1131267 L14.3565729,19.279507 C14.6203713,19.4723058 14.9329693,19.5685052 15.2453674,19.5685052 C15.5561654,19.5685052 15.8685635,19.4723058 16.1341619,19.279507 C16.6635586,18.8941094 16.8857572,18.2119136 16.6827584,17.5897175 L15.0179688,12.4677494 L19.3769417,9.30216905 C19.9063384,8.91757145 20.128737,8.23457569 19.9255383,7.61217956 C19.7223395,6.98898344 19.1425431,6.56698606 18.4879472,6.56698606 L13.1013807,6.56698606 L11.4365911,1.44501792 C11.2333923,0.821821791 10.6535959,0.400024414 9.9992,0.400024414 L9.9992,0.400024414 Z" id="Shape"></path>
                </g>
            </g>
            </g>
        </g>
    </g>
</svg>